<svg width="32" height="31" viewBox="0 0 32 31" fill="none" xmlns="http://www.w3.org/2000/svg">
<path d="M25.5 0.75C27.1797 0.75 28.7906 1.41726 29.9784 2.60499C31.1661 3.79272 31.8334 5.40363 31.8334 7.08333V19.75C31.8334 21.4297 31.1661 23.0406 29.9784 24.2283C28.7906 25.4161 27.1797 26.0833 25.5 26.0833H18.0204L10.4805 30.6069C10.2535 30.7432 9.99584 30.8203 9.73125 30.8313C9.46665 30.8422 9.20354 30.7866 8.966 30.6696C8.72845 30.5525 8.52405 30.3778 8.37151 30.1613C8.21897 29.9448 8.12316 29.6936 8.09285 29.4305L8.08335 29.25V26.0833H6.50002C4.87514 26.0833 3.31241 25.4588 2.13507 24.3389C0.957728 23.2191 0.255848 21.6895 0.174604 20.0667L0.166687 19.75V7.08333C0.166687 5.40363 0.833947 3.79272 2.02168 2.60499C3.20941 1.41726 4.82032 0.75 6.50002 0.75H25.5ZM19.1667 15H9.66669C9.24676 15 8.84403 15.1668 8.5471 15.4637C8.25017 15.7607 8.08335 16.1634 8.08335 16.5833C8.08335 17.0033 8.25017 17.406 8.5471 17.7029C8.84403 17.9999 9.24676 18.1667 9.66669 18.1667H19.1667C19.5866 18.1667 19.9893 17.9999 20.2863 17.7029C20.5832 17.406 20.75 17.0033 20.75 16.5833C20.75 16.1634 20.5832 15.7607 20.2863 15.4637C19.9893 15.1668 19.5866 15 19.1667 15ZM22.3334 8.66667H9.66669C9.24676 8.66667 8.84403 8.83348 8.5471 9.13041C8.25017 9.42735 8.08335 9.83007 8.08335 10.25C8.08335 10.6699 8.25017 11.0727 8.5471 11.3696C8.84403 11.6665 9.24676 11.8333 9.66669 11.8333H22.3334C22.7533 11.8333 23.156 11.6665 23.4529 11.3696C23.7499 11.0727 23.9167 10.6699 23.9167 10.25C23.9167 9.83007 23.7499 9.42735 23.4529 9.13041C23.156 8.83348 22.7533 8.66667 22.3334 8.66667Z" fill="black"/>
</svg>
