<svg width="29" height="23" viewBox="0 0 29 23" fill="none" xmlns="http://www.w3.org/2000/svg">
<path d="M12.6875 23C12.6875 23 10.875 23 10.875 21.0833C10.875 19.1667 12.6875 13.4167 19.9375 13.4167C27.1875 13.4167 29 19.1667 29 21.0833C29 23 27.1875 23 27.1875 23H12.6875ZM19.9375 11.5C21.3796 11.5 22.7627 10.8942 23.7824 9.81586C24.8021 8.73753 25.375 7.27499 25.375 5.75C25.375 4.22501 24.8021 2.76247 23.7824 1.68414C22.7627 0.605802 21.3796 0 19.9375 0C18.4954 0 17.1123 0.605802 16.0926 1.68414C15.0729 2.76247 14.5 4.22501 14.5 5.75C14.5 7.27499 15.0729 8.73753 16.0926 9.81586C17.1123 10.8942 18.4954 11.5 19.9375 11.5ZM9.454 23C9.18543 22.4016 9.05144 21.7456 9.0625 21.0833C9.0625 18.4862 10.295 15.8125 12.5715 13.9533C11.4354 13.5823 10.2515 13.4013 9.0625 13.4167C1.8125 13.4167 0 19.1667 0 21.0833C0 23 1.8125 23 1.8125 23H9.454ZM8.15625 11.5C9.35801 11.5 10.5106 10.9952 11.3603 10.0966C12.2101 9.19794 12.6875 7.97916 12.6875 6.70833C12.6875 5.4375 12.2101 4.21873 11.3603 3.32011C10.5106 2.4215 9.35801 1.91667 8.15625 1.91667C6.95449 1.91667 5.80195 2.4215 4.95217 3.32011C4.1024 4.21873 3.625 5.4375 3.625 6.70833C3.625 7.97916 4.1024 9.19794 4.95217 10.0966C5.80195 10.9952 6.95449 11.5 8.15625 11.5Z" fill="black"/>
</svg>
